<?xml version="1.0" encoding="UTF-8"?>
<svg id="logo_xA0_画像" xmlns="http://www.w3.org/2000/svg" version="1.1" viewBox="0 0 722.64 343.49">
  <!-- Generator: Adobe Illustrator 30.1.0, SVG Export Plug-In . SVG Version: 2.1.1 Build 136)  -->
  <defs>
    <style>
      .st0 {
        fill: #fff;
      }

      .st1 {
        fill: #388aa9;
      }
    </style>
  </defs>
  <path class="st0" d="M283.75,208.33c15.27-1.12,28.52-13.51,28.52-28.99l-.03-121.39c0-15.36-13.97-28.57-29.22-28.58l-215.41-.14c-17.51-.01-31.22,13.69-31.22,31.19l.02,117.03c0,16.35,12.99,30.77,29.74,30.78l217.6.1ZM397.48,161.95c3.88-8.73,3.73-18.94-.53-27.46-2.81-5.63-6.89-10.18-11.6-14.23l-17.78-15.29c-3.59-3.08-6.97-6.13-9.99-9.73-1.44-1.71-1.86-4.37-1.34-6.51.36-1.51,2-3.4,3.77-4.35,8.44-4.52,17.25,2.74,22.42,10.14l15.83-13.99c-3.16-3.59-6.08-6.65-9.59-9.62-9.4-7.95-22.03-10.73-33.84-6.77-7.44,2.5-13.55,7.77-17.09,14.73-4.26,8.39-3.44,17.94,1.23,25.97,8.69,14.97,31.78,28.42,38.29,38.32,3.37,5.12,2.22,11.08-2.77,14.45-5.56,3.75-12.78,3.1-18.05-1.2-3.71-3.02-6.29-6.79-8.81-11.21l-17.85,10.78c5.85,12.42,15.41,22.05,29.46,24.01,15.58,2.17,31.62-3.12,38.24-18.04ZM501.27,177.52v-112.24s-21.59,0-21.59,0l-.03,42.47h-37.51s-.01-42.46-.01-42.46h-21.7s0,112.28,0,112.28l21.7.04.02-49.21h37.51s0,49.22,0,49.22l21.6-.1ZM546.55,65.27h-21.23v112.34h21.23v-112.34ZM626.71,106.33l-34.54-.04.04-20.35,34.53-.03-.02-20.65-55.68.03v112.28s21.13,0,21.13,0v-50.59s34.58-.04,34.58-.04l-.05-20.61ZM676.16,177.5v-91.06s20.45-.06,20.45-.06v-21.1s-62,0-62,0l-.06,21.08,19.96.13.02,91.13,21.63-.13ZM260.34,300.82c2.57-6.03,1.7-12.54-2.09-17.46-2.26-2.94-4.95-5.25-7.75-7.59-3.92-3.28-7.54-6.38-11.27-9.94-.74-.71-1.3-2.61-1.22-3.52.08-.81,1.03-2.19,1.86-2.69,4.47-2.71,9.35,1.11,12.34,5.3l8.49-7.43c-2.29-2.7-4.56-5.07-7.47-6.91-5.91-3.74-13.47-3.94-19.31-.32-7.79,4.83-9.52,14.47-3.98,21.76,7.88,10.36,23.53,17.34,20.05,24.05-2.02,3.88-7.02,4.73-10.67,2.47-2.55-1.58-4.08-3.87-5.86-6.65l-9.54,5.75c2.05,4.47,5.03,8.31,9.29,10.74,8.51,4.86,22.72,2.76,27.12-7.53ZM504.31,279.29c0-17.42-14.12-31.53-31.53-31.53s-31.53,14.12-31.53,31.53,14.12,31.53,31.53,31.53,31.53-14.12,31.53-31.53ZM289.17,309.31v-49.05s11.02-.15,11.02-.15l-.1-10.99h-33.24s-.03,10.99-.03,10.99l10.67.16.02,49.09,11.66-.04ZM337.19,249.17l-.07,41.64c0,5.24-3.56,8.74-8.6,8.95s-9.06-3.15-9.07-8.6l-.08-42.01h-11.51s.07,39.65.07,39.65c0,3.91.53,8.09,2.1,11.51,3.34,7.25,10.94,10.46,18.53,10.54,11.76.13,20.12-8.52,20.14-20.15l.07-41.5-11.59-.03ZM406.79,264.88c-2.53-5.57-6.45-9.81-11.7-12.7-4.42-1.71-8.96-2.87-13.76-2.9l-19.24-.14v60.22s19.37-.07,19.37-.07c3.9-.01,7.62-.64,11.4-1.43,16.99-6.43,20.72-28.05,13.94-42.98ZM431.44,249.12h-11.44v60.25h11.44v-60.25Z"/>
  <path d="M504.31,279.29c0,17.42-14.12,31.53-31.53,31.53s-31.53-14.12-31.53-31.53,14.12-31.53,31.53-31.53,31.53,14.12,31.53,31.53ZM492.99,279.24c0-11.18-9.07-20.25-20.25-20.25s-20.25,9.07-20.25,20.25,9.07,20.25,20.25,20.25,20.25-9.07,20.25-20.25Z"/>
  <path d="M406.79,264.88c6.78,14.93,3.05,36.55-13.94,42.98-3.78.78-7.49,1.42-11.4,1.43l-19.37.07v-60.22s19.24.14,19.24.14c4.8.04,9.34,1.19,13.76,2.9,5.25,2.89,9.18,7.13,11.7,12.7ZM396.85,271.04c-3.57-10.19-14.02-11.36-23.32-10.76l.02,38.01c4.2.05,7.81.01,11.67-.37,12.71-1.24,15.19-16.73,11.63-26.89Z"/>
  <path d="M337.19,249.17l11.59.03-.07,41.5c-.02,11.63-8.38,20.28-20.14,20.15-7.59-.09-15.19-3.29-18.53-10.54-1.57-3.42-2.09-7.6-2.1-11.51l-.07-39.67h11.51s.08,42.03.08,42.03c.01,5.45,3.93,8.82,9.07,8.6s8.59-3.71,8.6-8.95l.07-41.64Z"/>
  <path d="M260.34,300.82c-4.4,10.3-18.61,12.39-27.12,7.53-4.26-2.43-7.24-6.27-9.29-10.74l9.54-5.75c1.78,2.78,3.31,5.07,5.86,6.65,3.65,2.26,8.66,1.41,10.67-2.47,3.48-6.7-12.17-13.69-20.05-24.05-5.54-7.29-3.82-16.92,3.98-21.76,5.84-3.62,13.39-3.42,19.31.32,2.91,1.84,5.18,4.21,7.47,6.91l-8.49,7.43c-2.98-4.19-7.87-8-12.34-5.3-.83.5-1.79,1.89-1.86,2.69-.09.91.47,2.81,1.22,3.52,3.73,3.57,7.35,6.66,11.27,9.94,2.8,2.34,5.49,4.65,7.75,7.59,3.79,4.93,4.67,11.44,2.09,17.46Z"/>
  <polygon points="289.17 309.31 277.51 309.35 277.49 260.26 266.82 260.11 266.85 249.12 300.09 249.12 300.19 260.11 289.17 260.26 289.17 309.31"/>
  <rect x="420.01" y="249.12" width="11.44" height="60.25"/>
  <circle class="st0" cx="472.74" cy="279.24" r="20.25"/>
  <path class="st0" d="M396.85,271.04c3.56,10.16,1.08,25.65-11.63,26.89-3.87.38-7.47.41-11.67.37l-.02-38.01c9.3-.61,19.74.56,23.32,10.76Z"/>
  <g>
    <g>
      <path d="M397.48,161.95c-6.62,14.92-22.66,20.22-38.24,18.04-14.05-1.96-23.61-11.59-29.46-24.01l17.85-10.78c2.52,4.42,5.09,8.19,8.81,11.21,5.28,4.3,12.5,4.95,18.05,1.2,4.99-3.37,6.14-9.33,2.77-14.45-6.51-9.9-29.6-23.35-38.29-38.32-4.67-8.04-5.49-17.59-1.23-25.97,3.54-6.96,9.65-12.23,17.09-14.73,11.81-3.96,24.44-1.18,33.84,6.77,3.51,2.97,6.43,6.03,9.59,9.62l-15.83,13.99c-5.17-7.4-13.98-14.66-22.42-10.14-1.77.95-3.4,2.84-3.77,4.35-.52,2.13-.09,4.8,1.34,6.51,3.02,3.6,6.4,6.65,9.99,9.73l17.78,15.29c4.71,4.05,8.79,8.6,11.6,14.23,4.25,8.52,4.4,18.73.53,27.46Z"/>
      <g>
        <polygon points="501.27 177.52 479.67 177.62 479.66 128.41 442.14 128.4 442.12 177.62 420.43 177.58 420.43 65.29 442.13 65.3 442.14 107.75 479.65 107.76 479.67 65.28 501.25 65.28 501.27 177.52"/>
        <g>
          <polygon points="626.71 106.33 626.76 126.94 592.19 126.98 592.18 177.57 571.05 177.58 571.05 65.3 626.73 65.27 626.75 85.92 592.21 85.95 592.17 106.29 626.71 106.33"/>
          <polygon points="676.16 177.5 654.53 177.62 654.52 86.49 634.56 86.36 634.61 65.28 696.61 65.28 696.62 86.38 676.16 86.44 676.16 177.5"/>
        </g>
        <rect x="525.32" y="65.27" width="21.23" height="112.34"/>
      </g>
    </g>
    <g>
      <path d="M283.75,208.33l-217.6-.1c-16.75,0-29.74-14.43-29.74-30.78l-.02-117.03c0-17.51,13.71-31.2,31.22-31.19l215.41.14c15.24,0,29.21,13.22,29.22,28.58l.03,121.39c0,15.48-13.24,27.87-28.52,28.99ZM171.71,193.6l109.83.08c9.17,0,16.26-7.08,16.26-16.26V59.93c-.01-9.12-7.25-16-16.27-16l-109.82.09-104.13-.12c-9.11-.01-16.49,6.74-16.49,16.04v117.48c-.01,8.7,6.65,16.19,15.57,16.2l105.04-.02Z"/>
      <path d="M250.82,134.93l-38.82-.07-10.18,26.84c-.1,1.07-.06,2.72.38,3.48.4.69,1.83,1.61,2.71,1.65l7.37.36-.02,7.98h-35.84s-.08-7.92-.08-7.92l6.21-.53c2.97-.25,5.92-1.99,7.05-4.98l41.3-109.2,8.23.13,40.84,107.62c1.49,3.92,4.95,6.3,8.83,6.54l6.37.39-.09,7.96h-46.31s0-8.07,0-8.07l8.5-.15c.9-.02,2.59-.82,3.08-1.53.53-.77.55-2.41.44-3.59l-9.96-26.92ZM246.41,122.76l-14.9-39.54-14.93,39.74,29.83-.2Z"/>
      <g>
        <path class="st1" d="M171.71,44.02v149.58l-105.04.02c-8.92,0-15.59-7.49-15.59-16.2V59.94c.01-9.3,7.4-16.05,16.5-16.04l104.13.12ZM132.18,166.88l.17,8.32h20.71s0-83.04,0-83.04h-20.71s-.21,8.75-.21,8.75c-11.72-11.75-29.47-14.42-43.98-6.32-16.98,9.49-23.17,28.82-20.37,47.54,1.49,9.97,6.31,18.49,13.67,25.3,10.64,9.84,25.82,12.75,39.27,7.1,4.43-1.86,7.65-4.76,11.46-7.65Z"/>
        <path class="st0" d="M132.18,166.88c-3.81,2.89-7.03,5.78-11.46,7.65-13.45,5.65-28.63,2.74-39.27-7.1-7.36-6.81-12.18-15.33-13.67-25.3-2.8-18.72,3.39-38.05,20.37-47.54,14.5-8.1,32.25-5.44,43.98,6.32l.21-8.74h20.71s0,83.02,0,83.02h-20.71s-.17-8.31-.17-8.31ZM131.75,143.14c2.09-6.31,2.08-12.9.08-18.98-3.01-9.14-11.09-14.94-20.62-15.22s-17.19,4.57-20.97,13.07c-3.15,7.09-3.19,15.6-.1,22.76,3.86,8.95,12.29,14.1,21.72,13.6,8.86-.47,16.86-6.09,19.88-15.24Z"/>
        <path class="st1" d="M131.75,143.14c-3.02,9.15-11.02,14.77-19.88,15.24-9.44.5-17.86-4.65-21.72-13.6-3.09-7.16-3.05-15.67.1-22.76,3.78-8.5,11.79-13.34,20.97-13.07s17.61,6.07,20.62,15.22c2,6.07,2,12.66-.08,18.98Z"/>
      </g>
    </g>
  </g>
</svg>